HIERARCHY
ROOT Bip001_Pelvis
{
  OFFSET 33.2923 95.8902 -28.781
  CHANNELS 6 Xposition Yposition Zposition Zrotation Xrotation Yrotation
  JOINT Bip001_Spine
  {
    OFFSET 1.4188e-005 10.2191 -0.0116013
    CHANNELS 3 Zrotation Xrotation Yrotation
    JOINT Bip001_L_Thigh
    {
      OFFSET 11.0458 -10.2192 0.0116197
      CHANNELS 3 Zrotation Xrotation Yrotation
      JOINT Bip001_L_Calf
      {
        OFFSET -0.707118 -44.0221 0.360014
        CHANNELS 3 Zrotation Xrotation Yrotation
        JOINT Bip001_L_Foot
        {
          OFFSET -0.651902 -40.5938 -3.56146
          CHANNELS 3 Zrotation Xrotation Yrotation
          JOINT Bip001_L_Toe0
          {
            OFFSET 0.0530839 -10.2181 13.1504
            CHANNELS 3 Zrotation Xrotation Yrotation
            End Site
            {
              OFFSET -1.02532e-005 0 7.55606
            }
          }
        }
      }
    }
    JOINT Bip001_R_Thigh
    {
      OFFSET -11.0458 -10.2191 0.0115893
      CHANNELS 3 Zrotation Xrotation Yrotation
      JOINT Bip001_R_Calf
      {
        OFFSET 0.706994 -44.0221 0.35984
        CHANNELS 3 Zrotation Xrotation Yrotation
        JOINT Bip001_R_Foot
        {
          OFFSET 0.651786 -40.5938 -3.5613
          CHANNELS 3 Zrotation Xrotation Yrotation
          JOINT Bip001_R_Toe0
          {
            OFFSET -0.0531479 -10.2181 13.1504
            CHANNELS 3 Zrotation Xrotation Yrotation
            End Site
            {
              OFFSET -1.02894e-005 0 7.55606
            }
          }
        }
      }
    }
    JOINT Bip001_Spine1
    {
      OFFSET 1.87041e-005 14.5736 1.08638
      CHANNELS 3 Zrotation Xrotation Yrotation
      JOINT Bip001_Spine2
      {
        OFFSET 2.24614e-005 14.5058 -1.69078
        CHANNELS 3 Zrotation Xrotation Yrotation
        JOINT Bip001_Neck
        {
          OFFSET 2.20278e-005 15.3945 -0.489414
          CHANNELS 3 Zrotation Xrotation Yrotation
          JOINT Bip001_L_Clavicle
          {
            OFFSET 6.06036 -0.000579998 0.00836775
            CHANNELS 3 Zrotation Xrotation Yrotation
            JOINT Bip001_L_UpperArm
            {
              OFFSET 11.5509 -0.0600302 0.00193952
              CHANNELS 3 Zrotation Xrotation Yrotation
              JOINT Bip001_L_Forearm
              {
                OFFSET 25.9523 0.0806089 -2.15551
                CHANNELS 3 Zrotation Xrotation Yrotation
                JOINT Bip001_L_Hand
                {
                  OFFSET 32.2476 0.153767 1.63968
                  CHANNELS 3 Zrotation Xrotation Yrotation
                  JOINT Bip001_L_Finger0
                  {
                    OFFSET 6.04639 -2.20976 5.90322
                    CHANNELS 3 Zrotation Xrotation Yrotation
                    End Site
                    {
                      OFFSET 4.22376 -1.43895 0.606486
                    }
                  }
                  JOINT Bip001_L_Finger1
                  {
                    OFFSET 11.0826 -0.704819 -0.198153
                    CHANNELS 3 Zrotation Xrotation Yrotation
                    End Site
                    {
                      OFFSET 6.20028 -0.397518 -0.0787166
                    }
                  }
                }
              }
            }
          }
          JOINT Bip001_R_Clavicle
          {
            OFFSET -6.06036 -0.000563197 0.00835105
            CHANNELS 3 Zrotation Xrotation Yrotation
            JOINT Bip001_R_UpperArm
            {
              OFFSET -11.5509 -0.0599978 0.00190698
              CHANNELS 3 Zrotation Xrotation Yrotation
              JOINT Bip001_R_Forearm
              {
                OFFSET -25.9523 0.080682 -2.1559
                CHANNELS 3 Zrotation Xrotation Yrotation
                JOINT Bip001_R_Hand
                {
                  OFFSET -32.2476 0.153858 1.63991
                  CHANNELS 3 Zrotation Xrotation Yrotation
                  JOINT Bip001_R_Finger0
                  {
                    OFFSET -6.04641 -2.20974 5.90321
                    CHANNELS 3 Zrotation Xrotation Yrotation
                    End Site
                    {
                      OFFSET -4.22376 -1.43894 0.606474
                    }
                  }
                  JOINT Bip001_R_Finger1
                  {
                    OFFSET -11.0826 -0.704789 -0.198184
                    CHANNELS 3 Zrotation Xrotation Yrotation
                    End Site
                    {
                      OFFSET -6.20028 -0.397501 -0.0787338
                    }
                  }
                }
              }
            }
          }
          JOINT Bip001_Head
          {
            OFFSET 1.09673e-005 11.2744 2.05948
            CHANNELS 3 Zrotation Xrotation Yrotation
            End Site
            {
              OFFSET 2.89576e-005 20.8808 -2.77728e-005
            }
          }
        }
      }
    }
  }
}
MOTION
Frames:	8
Frame Time:	0.04
31.9744 95.8122 -27.705 0.445789 -0.314487 2.85386 -0.083685 3.11395 0.567567 5.43056 -4.35719 5.95068 -0.342968 8.29159 -12.5727 2.68349 -3.7897 -0.0224134 -3.71658 -3.40332 5.49449 -2.87717 -3.54557 -3.38805 0.249633 10.9213 -0.0422865 -5.87478 -10.4925 2.08763 1.96607 -6.96076 2.40297 -0.198687 6.2269 1.14223 -0.198752 6.2269 1.14223 2.74389 1.37839 -5.45486 -26.06 -0.590749 -2.4686 -48.2691 39.9631 -3.55426 11.8856 -1.10335 -26.7232 8.52458 1.18355 -2.09741 0 0 -4.77083e-015 -3.18055e-015 0 -4.77083e-015 26.0628 7.95522 20.9339 38.2339 47.3443 12.5187 -3.41457 18.309 -1.16237 1.02661 6.26523 0.266042 -4.41391e-032 -7.95139e-016 -3.18055e-015 0 0 -2.18663e-015 -0.479282 13.6829 -4.26192 
32.0357 95.8174 -27.6499 0.403073 -0.392183 2.86604 -0.0422088 3.16718 0.476164 5.47838 -4.34938 6.48909 -0.352286 8.46114 -12.8404 2.41382 -4.17144 -0.0230347 -3.78492 -3.13016 5.51516 -2.87771 -3.38137 -3.56113 0.130951 10.7026 0.042232 -5.81951 -10.4389 2.26229 1.97526 -7.02741 2.45527 -0.112141 6.3339 0.956859 -0.111074 6.33391 0.956871 2.93638 1.85022 -5.46887 -26.3303 -1.09645 -2.46034 -48.1914 39.5595 -3.24269 12.0749 -0.681595 -27.4219 8.79569 0.94568 -2.38236 -0 0 7.95139e-015 3.18055e-015 0 4.77083e-015 26.6327 7.01464 19.2304 43.2091 45.3207 5.58759 -3.5486 17.7285 -1.0946 0.489654 5.62623 -0.353887 7.95139e-016 -1.98785e-016 -3.15571e-015 7.95139e-016 0 -2.55935e-015 -0.586121 13.4704 -4.17507 
32.1028 95.8166 -27.6355 0.413461 -0.403413 2.85755 -0.033902 3.2292 0.372095 5.43465 -4.33754 6.73393 -0.418362 8.37565 -13.0158 2.85247 -3.88496 -0.0375914 -3.66035 -3.35224 5.39174 -2.89329 -3.42372 -3.54542 0.0596503 10.6908 0.0506457 -5.78133 -10.4347 2.32524 1.9869 -7.07624 2.46472 -0.0832924 6.45811 0.746755 -0.0854873 6.45813 0.74712 3.34404 2.15816 -5.60482 -26.7185 -1.51174 -2.33265 -47.909 39.3877 -3.10796 12.0348 -0.631375 -27.9402 8.8909 0.883411 -2.55848 3.18055e-015 0 -0 6.36111e-015 3.18056e-015 -0 27.0131 6.09984 17.1919 45.6046 43.1235 1.05874 -4.03068 17.5053 -0.00672276 -0.00607974 4.3447 0.373712 -7.95139e-016 1.59028e-015 -1.98785e-016 -9.65542e-033 7.95139e-016 6.95746e-016 -1.14388 13.3763 -4.00872 
32.0975 95.8352 -27.6674 0.240905 -0.447379 2.58865 0.0110477 3.29977 0.372919 5.68669 -4.44306 7.06032 -0.51115 8.6571 -12.8389 2.19905 -4.54853 -0.00799111 -3.88791 -2.83869 5.57734 -2.69399 -3.38287 -2.95012 0.0260871 10.3589 -0.0341815 -5.82261 -10.1561 2.09729 1.99429 -7.12185 2.48802 -0.00213995 6.59954 0.74764 -0.000781888 6.59956 0.747461 4.30565 2.51117 -6.10833 -27.5491 -1.99892 -2.54104 -47.681 39.4642 -2.98873 12.0124 -0.753913 -27.9166 8.67906 0.775239 -2.55528 -6.36111e-015 -9.54166e-015 -1.59028e-015 -6.36111e-015 -3.18056e-015 -0 26.6953 5.10503 15.2771 46.6366 40.6551 -1.52048 -4.2076 17.6959 0.526435 -1.84912 2.44397 2.08036 7.95139e-016 -1.59028e-015 2.5842e-015 1.59028e-015 0 2.38542e-015 -2.38246 13.2332 -3.77817 
32.1655 95.8389 -27.6571 0.332988 -0.435812 2.34639 0.00833184 3.34732 0.344742 5.49803 -4.32998 6.93609 -0.508603 8.41102 -12.5166 2.4317 -4.28038 -0.0168154 -3.77034 -3.02727 5.48726 -2.87256 -3.51269 -2.92578 0.0652925 10.4538 0.00853932 -5.7668 -10.2289 2.23951 1.9962 -7.14879 2.50509 -0.00469071 6.69461 0.690853 -0.00410976 6.69464 0.690857 5.01532 2.75843 -6.46285 -28.1031 -2.32284 -2.78515 -47.5917 39.9243 -3.05585 11.9096 -1.13018 -27.3333 8.30775 0.887165 -2.37675 -0 -6.36111e-015 -0 0 0 -1.59028e-015 26.04 4.18617 13.6682 47.6795 38.5035 -3.121 -4.81792 15.4705 1.10742 -2.32101 1.6788 3.25195 -1.32417e-031 -6.36111e-015 -1.19271e-015 1.76556e-031 -6.36111e-015 1.59028e-015 -3.34248 13.1873 -3.56897 
32.1997 95.8452 -27.6484 0.287583 -0.487996 1.98824 0.0242839 3.38365 0.286369 5.49201 -4.24449 7.39144 -0.411317 8.45457 -12.5458 2.18556 -4.51348 -0.00884335 -3.89729 -2.81338 5.57706 -2.90852 -3.49899 -2.67407 0.117296 10.3299 -0.181286 -5.62129 -10.2068 2.55165 1.98412 -7.08031 2.47672 0.0299697 6.77492 0.572705 0.0312927 6.77492 0.572781 5.29014 2.95194 -6.49028 -28.2481 -2.49292 -2.98921 -47.6242 40.2451 -3.18409 11.9654 -1.1187 -26.4862 7.90826 0.811279 -2.23174 3.18055e-015 6.36111e-015 -3.18055e-015 3.18055e-015 3.18056e-015 -0 25.8178 3.51935 12.5241 48.6527 37.9004 -4.70899 -5.84063 12.5993 2.4017 -3.40948 1.03604 3.37094 -2.20695e-031 3.18055e-015 3.97569e-015 7.95139e-016 6.36111e-015 1.98785e-015 -3.7158 13.192 -3.38654 
32.123 95.8588 -27.7332 -0.00701859 -0.340182 1.68155 0.0897064 3.38064 0.247607 5.87025 -4.59634 7.03832 -0.563238 8.93718 -11.6231 1.53397 -5.19765 0.00975803 -4.13548 -2.3484 5.79061 -2.63824 -3.55283 -2.27148 0.155689 9.88334 -0.324712 -5.54167 -9.94667 2.63037 1.96443 -7.02101 2.45826 0.165444 6.76162 0.492872 0.165864 6.76163 0.491932 5.59511 2.86006 -6.61256 -28.5233 -2.38429 -3.23944 -47.5901 40.2949 -3.29809 11.8105 -1.18421 -25.7012 7.68977 1.09364 -2.02093 3.18055e-015 -3.18055e-015 -1.59028e-015 3.18055e-015 -3.18056e-015 -3.18055e-015 25.5652 3.37148 11.9178 48.9633 37.2237 -5.05861 -6.61602 10.1785 3.3776 -3.81884 0.94174 2.95032 -7.95139e-016 0 -5.96354e-015 0 0 -5.1684e-015 -3.93154 13.3619 -3.32709 
32.1251 95.8544 -27.7493 -0.0302394 -0.400994 1.19075 0.102249 3.41075 0.264793 5.79601 -4.44363 7.00003 -0.541522 8.82794 -11.3649 2.13034 -4.7197 -0.00218657 -3.94653 -2.80149 5.65745 -2.70177 -3.62308 -2.00034 0.255655 9.90321 -0.286241 -5.47713 -9.947 2.75304 1.94292 -6.97399 2.45747 0.188777 6.82189 0.52822 0.188807 6.82191 0.528536 5.83204 2.56727 -6.77277 -28.7456 -2.06974 -3.50843 -47.5437 40.3759 -3.37425 11.7363 -1.1172 -25.1336 7.56783 0.972972 -1.98205 6.36111e-015 3.18055e-015 -1.59028e-015 6.36111e-015 3.18056e-015 -1.59028e-015 25.5646 3.54069 11.438 48.8931 37.4486 -4.85262 -7.56682 7.07731 4.26537 -3.31593 1.87793 2.40911 -1.59028e-015 0 -5.96354e-015 -1.59028e-015 0 -4.77083e-015 -3.93775 13.6076 -3.41213 
